<svg xmlns="http://www.w3.org/2000/svg" viewBox="0 0 512 512" fill="currentColor">
  <path d="M432 96h-82.7l-13.4-26.8A32 32 0 0 0 307.7 48H204.3a32 32 0 0 0-28.3 21.2L162.7 96H80a16 16 0 0 0 0 32h16l21.2 307.7A48 48 0 0 0 165 480h182a48 48 0 0 0 47.8-44.3L416 128h16a16 16 0 0 0 0-32zM208 80h96l6.5 16h-109l6.5-16zm170.2 368a16 16 0 0 1-15.9 14.7H165a16 16 0 0 1-15.9-14.7L128.2 128h255.7l-5.7 320z"></path>
  <path d="M208 416a16 16 0 0 1-16-16V208a16 16 0 0 1 32 0v192a16 16 0 0 1-16 16zm96 0a16 16 0 0 1-16-16V208a16 16 0 0 1 32 0v192a16 16 0 0 1-16 16z"></path>
</svg>
