<svg xmlns="http://www.w3.org/2000/svg" viewBox="0 0 512 512" fill="currentColor">
  <path d="M384 64h-68.8c-7-18.6-24.9-32-45.2-32h-28c-20.3 0-38.2 13.4-45.2 32H128c-17.7 0-32 14.3-32 32v352c0 17.7 14.3 32 32 32h256c17.7 0 32-14.3 32-32V96c0-17.7-14.3-32-32-32zm-160-4h64c6.6 0 12 5.4 12 12s-5.4 12-12 12h-64c-6.6 0-12-5.4-12-12s5.4-12 12-12zm176 388c0 8.8-7.2 16-16 16H128c-8.8 0-16-7.2-16-16V96c0-8.8 7.2-16 16-16h48v12c0 17.7 14.3 32 32 32h96c17.7 0 32-14.3 32-32V80h48c8.8 0 16 7.2 16 16v352z"></path>
  <path d="M403.2 243.2l-33.9-33.9c-6.2-6.2-16.4-6.2-22.6 0l-22.6 22.6-11.3 11.3L160 396v64h64l152.8-152.8 11.3-11.3 22.6-22.6c6.2-6.2 6.2-16.4 0-22.6zM214.1 432H176v-38.1l128.7-128.7 38.1 38.1L214.1 432zM364 282.1l-38.1-38.1 11.3-11.3 38.1 38.1-11.3 11.3z"></path>
</svg>
